# This file uses centimeters as units for non-parametric coordinates.

mtllib leftRoofBalk.mtl
g default
v -25.000000 0.000000 25.000000
v 25.000000 0.000000 25.000000
v -25.000000 4.500000 24.988075
v 25.000000 4.500001 25.001878
v -25.000000 0.000000 -25.000000
v 25.000000 0.000000 -25.000000
v 25.000000 0.287356 -19.171156
v 25.000000 0.287356 24.534948
v 25.000000 4.220904 24.536592
v -25.000000 0.287356 -19.171143
v -25.000000 0.287356 24.534944
v -25.000000 4.220904 24.524520
vt 0.375000 0.000000
vt 0.625000 0.000000
vt 0.291667 0.333333
vt 0.708333 0.333333
vt 0.375000 0.750000
vt 0.625000 0.750000
vt 0.375000 1.000000
vt 0.625000 1.000000
vt 0.875000 0.000000
vt 0.125000 0.000000
vt 0.625000 0.000000
vt 0.875000 0.000000
vt 0.708333 0.333333
vt 0.125000 0.000000
vt 0.375000 0.000000
vt 0.291667 0.333333
vn -0.000138 0.001116 0.999999
vn -0.000138 0.001116 0.999999
vn -0.000138 0.001116 0.999999
vn -0.000138 0.001116 0.999999
vn 0.000012 0.995974 -0.089647
vn 0.000012 0.995974 -0.089647
vn 0.000012 0.995974 -0.089647
vn 0.000012 0.995974 -0.089647
vn 0.000000 -1.000000 0.000000
vn 0.000000 -1.000000 0.000000
vn 0.000000 -1.000000 0.000000
vn 0.000000 -1.000000 0.000000
vn 1.000000 -0.000003 0.000000
vn 1.000000 -0.000003 0.000000
vn 1.000000 -0.000003 0.000000
vn 1.000000 -0.000003 0.000000
vn 1.000000 -0.000003 0.000000
vn 1.000000 -0.000003 0.000000
vn 1.000000 -0.000003 0.000000
vn 1.000000 -0.000003 0.000000
vn 1.000000 0.000000 0.000000
vn 1.000000 0.000000 0.000000
vn 1.000000 0.000000 0.000000
vn 1.000000 0.000000 0.000000
vn -1.000000 0.000000 0.000000
vn -1.000000 0.000000 0.000000
vn -1.000000 0.000000 0.000000
vn -1.000000 0.000000 0.000000
vn -1.000000 0.000000 0.000000
vn -1.000000 0.000000 0.000000
vn -1.000000 0.000000 0.000000
vn -1.000000 0.000000 0.000000
vn -1.000000 0.000007 0.000000
vn -1.000000 0.000007 0.000000
vn -1.000000 0.000007 0.000000
vn -1.000000 0.000007 0.000000
vn -0.000121 0.001116 0.999999
vn -0.000121 0.001116 0.999999
vn -0.000121 0.001116 0.999999
vn -0.000121 0.001116 0.999999
vn 0.000011 0.995974 -0.089647
vn 0.000011 0.995974 -0.089647
vn 0.000011 0.995974 -0.089647
vn 0.000011 0.995974 -0.089647
vn 0.000000 1.000000 0.000000
vn 0.000000 1.000000 0.000000
vn 0.000000 1.000000 0.000000
vn 0.000000 1.000000 0.000000
s off
g pCube1
usemtl initialShadingGroup
f 1/1/1 2/2/2 4/4/3 3/3/4
f 3/3/5 4/4/6 6/6/7 5/5/8
f 5/5/9 6/6/10 2/8/11 1/7/12
f 2/2/13 6/9/14 7/12/15 8/11/16
f 6/9/17 4/4/18 9/13/19 7/12/20
f 4/4/21 2/2/22 8/11/23 9/13/24
f 5/10/25 1/1/26 11/15/27 10/14/28
f 1/1/29 3/3/30 12/16/31 11/15/32
f 3/3/33 5/10/34 10/14/35 12/16/36
f 9/13/37 12/16/38 11/15/39 8/11/40
f 7/12/41 10/14/42 12/16/43 9/13/44
f 8/11/45 7/12/46 10/14/47 11/15/48
